<?xml version="1.0" encoding="iso-8859-1"?>
<!-- Generator: Adobe Illustrator 19.0.0, SVG Export Plug-In . SVG Version: 6.00 Build 0)  -->
<svg version="1.1" id="Layer_1" xmlns="http://www.w3.org/2000/svg" xmlns:xlink="http://www.w3.org/1999/xlink" x="0px" y="0px"
	 viewBox="0 0 296.999 296.999" style="enable-background:new 0 0 296.999 296.999;" xml:space="preserve">
<g>
	<g id="XMLID_27_">
		<g>
			<path style="fill:#16A085;" d="M232.174,58.679c19.75,22.75,29.45,51.83,27.31,81.88c-4.38,61.65-58.69,108.24-121.06,103.81
				l-10.17-0.72c-3.66-0.24-7.17,1.53-9.11,4.65c-1.95,3.11-2.01,7.05-0.16,10.22l10.09,17.36l-19.54-1.38l-23.29-40.89l28.8-37.22
				l19.38,1.37l-12.19,15.25c-2.3,2.88-2.82,6.8-1.34,10.17s4.71,5.65,8.38,5.91l10.88,0.77c2.33,0.16,4.64,0.24,6.93,0.24
				c50.68,0,93.6-39.35,97.22-90.66c1.84-25.96-6.57-51.1-23.65-70.79c-17.09-19.68-40.8-31.53-66.77-33.36
				c-23.12-1.64-46.1,5.04-64.73,18.77c-9.21,6.79-17.08,15.1-23.33,24.48s-10.87,19.82-13.56,30.88c-0.9,3.72-4.28,6.22-7.97,5.97
				c-3.06-0.22-4.82-2.04-5.6-3.1c-0.78-1.07-1.99-3.31-1.26-6.32c12.95-53.65,62.38-89.76,117.52-85.87
				C185.014,22.229,212.434,35.919,232.174,58.679z"/>
			<path d="M247.154,45.679c23.21,26.76,34.62,60.95,32.11,96.29c-4.93,69.36-63.49,122.51-132.66,122.52
				c-0.42,0-0.82-0.01-1.23-0.01l10.24,17.63c1.84,3.17,1.78,7.11-0.16,10.22c-1.82,2.92-5,4.67-8.41,4.67
				c-0.23,0-0.46-0.01-0.7-0.02l-43.5-3.07c-3.31-0.24-6.28-2.11-7.92-4.99l-29.17-51.24c-1.98-3.48-1.68-7.81,0.77-10.97
				l36.09-46.64c2.02-2.62,5.23-4.05,8.53-3.83l43.51,3.08c3.67,0.26,6.9,2.53,8.38,5.91c1.48,3.37,0.96,7.29-1.34,10.16
				l-11.86,14.84c39.17-1.39,71.88-32.24,74.7-72.19c1.46-20.68-5.24-40.71-18.85-56.39c-13.62-15.69-32.51-25.13-53.19-26.59
				c-37.94-2.69-71.99,22.16-80.97,59.05c-3.19,13.14-15.23,21.99-28.62,21.05c-8.07-0.57-15.43-4.64-20.21-11.16
				c-4.78-6.54-6.43-14.81-4.53-22.68c7.27-30.12,25.07-56.9,50.12-75.41c25.33-18.72,56.61-27.8,88.07-25.58
				C191.684,2.819,223.934,18.929,247.154,45.679z M259.484,140.559c2.14-30.05-7.56-59.13-27.31-81.88
				c-19.74-22.76-47.16-36.45-77.22-38.58c-55.14-3.89-104.57,32.22-117.52,85.87c-0.73,3.01,0.48,5.25,1.26,6.32
				c0.78,1.06,2.54,2.88,5.6,3.1c3.69,0.25,7.07-2.25,7.97-5.97c2.69-11.06,7.31-21.5,13.56-30.88s14.12-17.69,23.33-24.48
				c18.63-13.73,41.61-20.41,64.73-18.77c25.97,1.83,49.68,13.68,66.77,33.36c17.08,19.69,25.49,44.83,23.65,70.79
				c-3.62,51.31-46.54,90.66-97.22,90.66c-2.29,0-4.6-0.08-6.93-0.24l-10.88-0.77c-3.67-0.26-6.9-2.54-8.38-5.91
				s-0.96-7.29,1.34-10.17l12.19-15.25l-19.38-1.37l-28.8,37.22l23.29,40.89l19.54,1.38l-10.09-17.36
				c-1.85-3.17-1.79-7.11,0.16-10.22c1.94-3.12,5.45-4.89,9.11-4.65l10.17,0.72C200.794,248.799,255.104,202.209,259.484,140.559z"
				/>
		</g>
	</g>
</g>
<g>
</g>
<g>
</g>
<g>
</g>
<g>
</g>
<g>
</g>
<g>
</g>
<g>
</g>
<g>
</g>
<g>
</g>
<g>
</g>
<g>
</g>
<g>
</g>
<g>
</g>
<g>
</g>
<g>
</g>
</svg>
